<svg height="676" viewBox="-5 0 507 507.414" width="676" xmlns="http://www.w3.org/2000/svg"><path d="M6.414 507.414H357.43c3.312 0 5.777-3.09 5.777-6.398v-155.57l132.93-133.044a6.005 6.005 0 00.05-8.484l-48.18-48.203a6.119 6.119 0 00-8.577 0l-76.223 75.984V72.062a5.537 5.537 0 00-1.66-4.082 5.524 5.524 0 00-4.117-1.566h-83.793l-3.032-7a41.75 41.75 0 00-38.156-25h-4.02C221.81 13.984 202.825.11 181.349 0c-21.442 0-40.141 13.414-46.97 34.414h-3.554a41.754 41.754 0 00-38.156 25l-3.035 7H6.414c-3.312 0-6.207 2.332-6.207 5.648v428.954a6.535 6.535 0 006.207 6.398zM71.027 115.45a6.25 6.25 0 005.024 2.965h211.168a6.33 6.33 0 005.027-2.976 6.332 6.332 0 00.465-5.825l-3.973-9.199h26.469v179.7l-28.621 28.3H177.207c-3.312 0-6 2.688-6 6s2.688 6 6 6h97.36l-49.387 49.3a5.986 5.986 0 00-1.547 2.653l-5.52 20.047h-40.906c-3.312 0-6 2.688-6 6s2.688 6 6 6h37.602l-9.637 34.988a6.002 6.002 0 007.379 7.379l67.031-18.46a6.438 6.438 0 002.79-1.548l32.835-32.757v68.398h-266v-362h25.324l-3.972 9.2a6.298 6.298 0 00.468 5.835zM232.47 385.496l33.992 33.992-46.914 12.918zm45.52 28.55l-40.083-40.081 54.715-54.621a5.95 5.95 0 001.5-1.5l114.387-114.188 39.789 39.79zm165.8-245.612l39.73 39.73-26.746 26.79L417 195.18zm-92.582-90.02V243.68l-24 24.449V94.465a6.277 6.277 0 00-6.27-6.05h-37.464l-4.567-10zm-247.55-14.101a29.817 29.817 0 0127.167-17.899h8.082a6.082 6.082 0 005.84-4.719c4.192-17.816 18.899-29.832 36.602-29.832 17.668.032 32.91 12.407 36.566 29.692a6.056 6.056 0 005.879 4.86h8.652a29.817 29.817 0 0127.168 17.898l18.418 42.101H85.238zm-91.45 14.101h72.156l-4.562 10H42.906a5.788 5.788 0 00-4.129 1.82 5.781 5.781 0 00-1.57 4.23v373.509c0 3.312 2.387 6.441 5.7 6.441h278.03a6.624 6.624 0 006.27-6.441v-85.977l24-24.531v137.95h-339zm0 0"/><path d="M64.914 215a6.002 6.002 0 00-.11 8.484l21.051 21.618a6 6 0 008.418.175l40.223-37.964a6 6 0 00-8.234-8.727l-35.93 33.91-16.93-17.383a6.003 6.003 0 00-8.488-.113zm112.293 21.414h118a6.001 6.001 0 000-12h-118c-3.312 0-6 2.688-6 6s2.688 6 6 6zm-50.945 46.102l-35.93 33.914-16.93-17.383a6.002 6.002 0 00-8.601 8.371l21.05 21.617a6.001 6.001 0 008.419.176l40.226-37.969a6 6 0 00-8.234-8.726zm0 83.937l-35.93 33.91-16.93-17.383c-2.312-2.375-6.113-2.425-8.488-.113s-2.426 6.11-.113 8.485l21.05 21.617a6.001 6.001 0 008.419.176l40.222-37.965a6.005 6.005 0 00.211-8.453 5.996 5.996 0 00-8.445-.274zm0 0"/></svg>