<?xml version="1.0" encoding="UTF-8" standalone="no"?>
<!-- Created with Inkscape (http://www.inkscape.org/) -->

<svg
   version="1.1"
   id="svg7395"
   xml:space="preserve"
   width="682.66669"
   height="682.66669"
   viewBox="0 0 682.66669 682.66669"
   xmlns="http://www.w3.org/2000/svg"
   xmlns:svg="http://www.w3.org/2000/svg"><defs
     id="defs7399"><clipPath
       clipPathUnits="userSpaceOnUse"
       id="clipPath7413"><path
         d="M 0,512 H 512 V 0 H 0 Z"
         id="path7411" /></clipPath></defs><g
     id="g7401"
     transform="matrix(1.3333333,0,0,-1.3333333,0,682.66667)"><g
       id="g7403"
       transform="translate(130,376)"><path
         d="M 0,0 H -20 V 40 H 146 V 0 Z"
         style="fill:none;stroke:#000000;stroke-width:20;stroke-linecap:round;stroke-linejoin:round;stroke-miterlimit:10;stroke-dasharray:none;stroke-opacity:1"
         id="path7405" /></g><g
       id="g7407"><g
         id="g7409"
         clip-path="url(#clipPath7413)"><g
           id="g7415"
           transform="translate(421.04,454.96)"><path
             d="M 0,0 0.02,0.04 -27,47.04 H -81.03 L -108.04,0.25 -81.03,-45.96 H -27 L -0.01,0"
             style="fill:none;stroke:#000000;stroke-width:20;stroke-linecap:round;stroke-linejoin:round;stroke-miterlimit:10;stroke-dasharray:none;stroke-opacity:1"
             id="path7417" /></g><g
           id="g7419"
           transform="translate(394.02,408.96)"><path
             d="M 0,0 27.01,-47.96 H 81.04 L 108.06,-0.59 81.04,46 H 27.01"
             style="fill:none;stroke:#000000;stroke-width:20;stroke-linecap:round;stroke-linejoin:round;stroke-miterlimit:10;stroke-dasharray:none;stroke-opacity:1"
             id="path7421" /></g><g
           id="g7423"
           transform="translate(402,302)"><path
             d="M 0,0 C 0,-5.52 -2.24,-10.52 -5.86,-14.14 -9.48,-17.76 -14.48,-20 -20,-20 c -11.05,0 -20,8.95 -20,20 0,11.05 8.95,20 20,20 C -8.95,20 0,11.05 0,0 Z"
             style="fill:none;stroke:#000000;stroke-width:20;stroke-linecap:round;stroke-linejoin:round;stroke-miterlimit:10;stroke-dasharray:none;stroke-opacity:1"
             id="path7425" /></g><g
           id="g7427"
           transform="translate(462,242)"><path
             d="m 0,0 c 0,-11.05 -8.95,-20 -20,-20 -11.05,0 -20,8.95 -20,20 0,5.52 2.24,10.52 5.86,14.14 C -30.52,17.76 -25.52,20 -20,20 -8.95,20 0,11.05 0,0 Z"
             style="fill:none;stroke:#000000;stroke-width:20;stroke-linecap:round;stroke-linejoin:round;stroke-miterlimit:10;stroke-dasharray:none;stroke-opacity:1"
             id="path7429" /></g><g
           id="g7431"
           transform="translate(427.8599,256.1396)"><path
             d="M 0,0 -31.72,31.721"
             style="fill:none;stroke:#000000;stroke-width:20;stroke-linecap:round;stroke-linejoin:round;stroke-miterlimit:10;stroke-dasharray:none;stroke-opacity:1"
             id="path7433" /></g><g
           id="g7435"
           transform="translate(392.96,318.7305)"><path
             d="M 0,0 28.07,42.27"
             style="fill:none;stroke:#000000;stroke-width:20;stroke-linecap:round;stroke-linejoin:round;stroke-miterlimit:10;stroke-dasharray:none;stroke-opacity:1"
             id="path7437" /></g><g
           id="g7439"
           transform="translate(282,482)"><path
             d="m 0,0 c 0,-11.05 -8.95,-20 -20,-20 -11.05,0 -20,8.95 -20,20 0,11.05 8.95,20 20,20 C -8.95,20 0,11.05 0,0 Z"
             style="fill:none;stroke:#000000;stroke-width:20;stroke-linecap:round;stroke-linejoin:round;stroke-miterlimit:10;stroke-dasharray:none;stroke-opacity:1"
             id="path7441" /></g><g
           id="g7443"
           transform="translate(279.71,472.7002)"><path
             d="M 0,0 33.29,-17.49"
             style="fill:none;stroke:#000000;stroke-width:20;stroke-linecap:round;stroke-linejoin:round;stroke-miterlimit:10;stroke-dasharray:none;stroke-opacity:1"
             id="path7445" /></g><g
           id="g7447"
           transform="translate(77.5098,176)"><path
             d="M 0,0 H 230.98"
             style="fill:none;stroke:#000000;stroke-width:20;stroke-linecap:round;stroke-linejoin:round;stroke-miterlimit:10;stroke-dasharray:none;stroke-opacity:1"
             id="path7449" /></g><g
           id="g7451"
           transform="translate(213,256)"><path
             d="m 0,0 c 0,-11.05 -8.95,-20 -20,-20 -11.05,0 -20,8.95 -20,20 0,11.05 20,40 20,40 0,0 20,-28.95 20,-40 z"
             style="fill:none;stroke:#000000;stroke-width:20;stroke-linecap:round;stroke-linejoin:round;stroke-miterlimit:10;stroke-dasharray:none;stroke-opacity:1"
             id="path7453" /></g><g
           id="g7455"
           transform="translate(203,10)"><path
             d="m 0,0 c 0,-5.522 -4.477,-10 -10,-10 -5.523,0 -10,4.478 -10,10 0,5.522 4.477,10 10,10 C -4.477,10 0,5.522 0,0"
             style="fill:#000000;fill-opacity:1;fill-rule:nonzero;stroke:none"
             id="path7457" /></g><g
           id="g7459"
           transform="translate(256,376)"><path
             d="m 0,0 v -100 l 116.42,-221.78 c 2.28,-4.23 3.58,-9.07 3.58,-14.22 0,-16.57 -13.43,-30 -30,-30 H -18"
             style="fill:none;stroke:#000000;stroke-width:20;stroke-linecap:round;stroke-linejoin:round;stroke-miterlimit:10;stroke-dasharray:none;stroke-opacity:1"
             id="path7461" /></g><g
           id="g7463"
           transform="translate(148,10)"><path
             d="m 0,0 h -108 c -16.57,0 -30,13.43 -30,30 0,5.15 1.3,9.99 3.58,14.22 L -18,266 v 100"
             style="fill:none;stroke:#000000;stroke-width:20;stroke-linecap:round;stroke-linejoin:round;stroke-miterlimit:10;stroke-dasharray:none;stroke-opacity:1"
             id="path7465" /></g></g></g></g></svg>
