<?xml version="1.0"?>
<svg xmlns="http://www.w3.org/2000/svg" id="Layer_1" data-name="Layer 1" viewBox="0 0 48 48" width="512" height="512"><path d="M42.376,43.786,30.413,16.471V5.508h1.739a.75.75,0,0,0,.75-.75V.75a.75.75,0,0,0-.75-.75h-16.3a.75.75,0,0,0-.75.75V4.758a.75.75,0,0,0,.75.75h1.739V16.471L5.624,43.786A3.006,3.006,0,0,0,8.378,48H39.622a3.006,3.006,0,0,0,2.754-4.214Zm-1.493,2.031a1.482,1.482,0,0,1-1.261.683H8.378A1.508,1.508,0,0,1,7,44.388L19.024,16.929a.763.763,0,0,0,.063-.3V5.508h7.935a.75.75,0,0,0,0-1.5H16.6V1.5H31.4V4.008H29.663a.75.75,0,0,0-.75.75v11.87a.763.763,0,0,0,.063.3l2.376,5.425H18.867a.75.75,0,0,0,0,1.5H32.009L41,44.388A1.481,1.481,0,0,1,40.883,45.817Z"/><path d="M28.747,26.176H24a.75.75,0,0,0,0,1.5h4.747a.75.75,0,0,0,0-1.5Z"/><path d="M24,31.413h2.374a.75.75,0,0,0,0-1.5H24a.75.75,0,0,0,0,1.5Z"/><path d="M28.747,33.65H24a.75.75,0,0,0,0,1.5h4.747a.75.75,0,0,0,0-1.5Z"/><path d="M24,38.889h2.374a.75.75,0,1,0,0-1.5H24a.75.75,0,0,0,0,1.5Z"/><path d="M28.747,41.126H24a.75.75,0,0,0,0,1.5h4.747a.75.75,0,0,0,0-1.5Z"/></svg>
