<svg id="Layer_1" enable-background="new 0 0 512 512" height="512" viewBox="0 0 512 512" width="512" xmlns="http://www.w3.org/2000/svg"><g clip-rule="evenodd" fill-rule="evenodd"><g><path d="m256 175.612 171.755 66.784v198.324l-171.755 66.783-171.754-66.783v-198.324z" fill="#a45e26"/><path d="m256 175.612 171.755 66.784v198.324l-171.755 66.783z" fill="#a35623"/><path d="m256 308.97-39.064 67.662s-57.313-22.285-171.936-66.854l39.064-67.662z" fill="#c36a26"/><path d="m256 308.97 39.064 67.662s57.313-22.285 171.936-66.854l-39.064-67.662z" fill="#c36a26"/><path d="m427.486 242.29-171.486-66.678-171.486 66.678 171.486 66.68z" fill="#9b5d2b"/><path d="m427.486 242.29-171.486-66.678v133.358z" fill="#824e2b"/></g><g><path d="m255.985 263.835c48.579 0 88.2-39.621 88.2-88.201 0-48.578-39.621-88.199-88.2-88.199s-88.2 39.621-88.2 88.199c0 48.58 39.621 88.201 88.2 88.201z" fill="#62a4fb"/><path d="m289.381 135.413c4.994-4.993 13.088-4.993 18.081 0 4.993 4.992 4.993 13.088 0 18.08l-62.364 62.365c-5.654 5.654-14.996 4.765-19.534-1.734l-26.237-33.019c-4.387-5.517-3.47-13.546 2.047-17.931 5.518-4.387 13.545-3.47 17.932 2.047l17.83 22.438z" fill="#eff4f7"/></g><path d="m417.018 169.74c4.418 0 8 3.581 8 8 0 4.418-3.582 7.999-8 7.999h-37.469c-4.418 0-8-3.581-8-7.999 0-4.419 3.582-8 8-8zm-169.034-157.243c0-4.418 3.582-8 8-8 4.419 0 8 3.582 8 8v37.469c0 4.418-3.581 8-8 8-4.418 0-8-3.582-8-8zm-80.755 24.774c-2.192-3.814-.877-8.684 2.938-10.875 3.814-2.192 8.684-.877 10.875 2.938l18.734 32.448c2.191 3.813.876 8.683-2.938 10.875s-8.684.876-10.875-2.938zm-57.577 61.878c-3.814-2.209-5.116-7.092-2.906-10.906 2.208-3.814 7.092-5.115 10.905-2.906l32.448 18.734c3.814 2.209 5.116 7.092 2.907 10.906s-7.093 5.115-10.907 2.906zm-18.91 82.38c-4.418 0-8-3.581-8-8 0-4.418 3.582-7.999 8-7.999h37.469c4.418 0 8 3.581 8 7.999 0 4.419-3.582 8-8 8zm239.623-150.091c2.191-3.814 7.061-5.13 10.875-2.938s5.129 7.062 2.938 10.876l-18.734 32.448c-2.191 3.813-7.061 5.129-10.875 2.938-3.813-2.192-5.129-7.062-2.938-10.876zm61.848 57.545c3.814-2.209 8.697-.908 10.907 2.906 2.208 3.814.907 8.697-2.907 10.906l-32.448 18.734c-3.813 2.209-8.697.908-10.906-2.906-2.21-3.814-.907-8.697 2.906-10.906z" fill="#fad808"/></g></svg>