<svg id="Capa_1" enable-background="new 0 0 512 512" height="512" viewBox="0 0 512 512" width="512" xmlns="http://www.w3.org/2000/svg"><path d="m37.6 495.008v-416.661c0-9.384 7.607-16.992 16.992-16.992h343.532c9.384 0 16.992 7.607 16.992 16.992v416.661c0 9.384-7.607 16.992-16.992 16.992h-343.533c-9.384 0-16.991-7.607-16.991-16.992z" fill="#0e80ac"/><path d="m398.123 61.356h-19.763v433.653c0 9.384-7.607 16.992-16.992 16.992h36.755c9.384 0 16.992-7.607 16.992-16.992v-416.661c0-9.385-7.608-16.992-16.992-16.992z" fill="#057195"/><path d="m74.383 61.356v397.782c0 6.19 5.018 11.208 11.208 11.208h281.533c6.19 0 11.208-5.018 11.208-11.208v-397.782z" fill="#f7f0f0"/><path d="m260.016 24.368c0-13.458-10.91-24.368-24.368-24.368h-18.582c-13.458 0-24.368 10.91-24.368 24.368 0 6.827-5.535 12.362-12.362 12.362h-14.868c-13.6 0-24.626 11.025-24.626 24.626v12.937c0 6.456 5.233 11.689 11.689 11.689h147.652c6.456 0 11.689-5.233 11.689-11.689v-12.937c0-13.6-11.025-24.626-24.626-24.626h-14.868c-6.828 0-12.362-5.535-12.362-12.362z" fill="#fd7e42"/><path d="m287.246 36.73h-14.868c-6.827 0-12.362-5.535-12.362-12.362 0-13.458-10.91-24.368-24.368-24.368h-12.576v37.244c0 6.827 5.535 12.362 12.362 12.362h14.868c13.6 0 24.626 11.025 24.626 24.626v11.75h25.254c6.456 0 11.689-5.233 11.689-11.689v-12.937c.001-13.601-11.024-24.626-24.625-24.626z" fill="#fa6931"/><path d="m135.195 184.699-16.937-15.055c-3.189-2.835-3.476-7.718-.641-10.907 2.834-3.189 7.718-3.478 10.907-.642l15.915 14.146 24.554-35.118c2.444-3.498 7.263-4.351 10.759-1.904 3.497 2.445 4.35 7.263 1.905 10.76l-25.338 36.239c-4.864 6.954-14.74 8.157-21.124 2.481z" fill="#fba615"/><path d="m135.196 297.567-16.939-15.057c-3.189-2.835-3.476-7.718-.641-10.907 2.834-3.189 7.718-3.479 10.908-.642l15.914 14.147 24.554-35.119c2.444-3.498 7.263-4.35 10.759-1.904 3.497 2.445 4.35 7.262 1.905 10.76l-25.338 36.24c-4.864 6.956-14.738 8.155-21.122 2.482z" fill="#fba615"/><path d="m135.195 408.917-16.937-15.055c-3.189-2.835-3.476-7.718-.641-10.907 2.834-3.189 7.718-3.478 10.907-.642l15.915 14.146 24.554-35.118c2.444-3.498 7.263-4.35 10.759-1.904 3.497 2.445 4.35 7.263 1.905 10.76l-25.338 36.239c-4.864 6.953-14.74 8.156-21.124 2.481z" fill="#fba615"/><g fill="#786e79"><path d="m329.324 153.336h-109.19c-4.267 0-7.726-3.459-7.726-7.726 0-4.268 3.459-7.726 7.726-7.726h109.19c4.268 0 7.726 3.459 7.726 7.726s-3.458 7.726-7.726 7.726z"/><path d="m329.324 187.673h-109.19c-4.267 0-7.726-3.459-7.726-7.726 0-4.268 3.459-7.726 7.726-7.726h109.19c4.268 0 7.726 3.459 7.726 7.726s-3.458 7.726-7.726 7.726z"/><path d="m329.324 263.726h-109.19c-4.267 0-7.726-3.459-7.726-7.726s3.459-7.726 7.726-7.726h109.19c4.268 0 7.726 3.459 7.726 7.726s-3.458 7.726-7.726 7.726z"/><path d="m274.728 298.063h-54.595c-4.267 0-7.726-3.459-7.726-7.726 0-4.268 3.459-7.726 7.726-7.726h54.595c4.268 0 7.726 3.459 7.726 7.726.001 4.268-3.458 7.726-7.726 7.726z"/></g><path d="m444.113 214.329-30.003-24.047-10.335 5.587-175.291 218.71-27.865 55.954c-2.264 4.545-1.052 10.054 2.911 13.23 3.962 3.176 9.603 3.159 13.546-.04l48.544-39.381 175.29-218.709z" fill="#fa6931"/><path d="m228.725 414.278-28.019 56.264c-2.276 4.571-1.057 10.11 2.927 13.303 3.984 3.193 9.656 3.177 13.621-.04l48.813-39.599z" fill="#557981"/><path d="m465.486 156.921c-10.255-8.219-25.23-6.569-33.449 3.686l-28.262 35.262 37.135 29.763 28.262-35.262c8.219-10.254 6.568-25.23-3.686-33.449z" fill="#ffc3ab"/></svg>